<?xml version="1.0" standalone="no"?>
<!DOCTYPE svg PUBLIC "-//W3C//DTD SVG 20010904//EN"
 "http://www.w3.org/TR/2001/REC-SVG-20010904/DTD/svg10.dtd">
<svg version="1.0" xmlns="http://www.w3.org/2000/svg"
 width="1024.000000pt" height="1024.000000pt" viewBox="0 0 1024.000000 1024.000000"
 preserveAspectRatio="xMidYMid meet">
<metadata>
Created by potrace 1.11, written by Peter Selinger 2001-2013
</metadata>
<g transform="translate(0.000000,1024.000000) scale(0.100000,-0.100000)"
fill="#000000" stroke="none">
<path d="M5790 8705 l0 -895 450 0 450 0 0 895 0 895 -450 0 -450 0 0 -895z"/>
<path d="M1315 6008 c-3 -7 -4 -411 -3 -898 l3 -885 445 0 445 0 0 895 0 895
-443 3 c-349 2 -444 0 -447 -10z"/>
<path d="M3555 6008 c-3 -7 -4 -411 -3 -898 l3 -885 445 0 445 0 0 895 0 895
-443 3 c-349 2 -444 0 -447 -10z"/>
<path d="M8035 6008 c-3 -7 -4 -411 -3 -898 l3 -885 445 0 445 0 0 895 0 895
-443 3 c-349 2 -444 0 -447 -10z"/>
<path d="M3550 1535 l0 -895 450 0 450 0 0 895 0 895 -450 0 -450 0 0 -895z"/>
</g>
</svg>
