<svg xmlns="http://www.w3.org/2000/svg" viewBox="0 0 1024 1024" >
	<circle fill="#27AE60" cx="512" cy="512" r="448"/>
	<circle fill="none" stroke="#ECF0F1" stroke-width="56" stroke-dasharray="164.933,164.933" cx="512" cy="512" r="420" />
	<circle fill="#000000" fill-opacity="0.1" cx="512" cy="512" r="286"/>
	<circle fill="#ECF0F1" cx="512" cy="512" r="216"/>
	<circle fill="none" stroke="#ECF0F1" stroke-width="12" stroke-dasharray="49.28,49.28" cx="512" cy="512" r="251"/>
	<path fill="#27AE60" d="M497.7,654v-25.2c-29.2-4.6-56.1-17.8-80.7-39.7l32.1-39c17.9,15.6,34.2,25.7,48.7,30v-51.4
		c-24.2-6.2-41.9-14.5-53.1-25c-11.3-10.5-16.9-25.5-16.9-45.2s6.4-35.9,19.3-48.7c12.9-12.8,29.8-20.4,50.7-22.9V370h36.6v17.6
		c23,3.2,45.9,12.8,68.7,28.6L574.6,457c-14.5-10.4-28-17.3-40.4-20.7v49.7c24.8,6.4,43.2,15.1,55,25.9
		c11.8,10.8,17.8,26.1,17.8,45.9c0,19.8-6.6,36.1-19.8,49c-13.2,12.9-30.9,20.6-53,23.1V654H497.7z M497.7,434.9
		c-9.9,3.4-14.8,9.8-14.8,19c0,9.2,4.9,16.2,14.8,21.1V434.9z M551.9,560.5c0-4.8-1.3-8.9-3.8-12.1s-7.1-6.2-13.8-9v42.4
		C546,578.2,551.9,571.1,551.9,560.5z"/>
</svg>
