<svg xmlns="http://www.w3.org/2000/svg" viewBox="0 0 1024 1024" >
	<path fill="#CC0000" d="M866.5,661.6l-117.3-24l70.8-18.9c25.4-6.8,40.6-32.9,33.7-58.5c-6.8-25.4-32.9-40.6-58.5-33.7
		l-72,19.2c1.8-11,3.4-22.1,3.4-33.7c0-11.5-1.6-22.7-3.4-33.7l72.1,19.3c4.2,1.1,8.3,1.6,12.4,1.6c21,0,40.4-14.1,46.1-35.4
		c6.8-25.4-8.3-51.6-33.7-58.5l-70.8-18.9l117.2-24c10.3-2.1,20-7.4,27.5-15.9c18.4-20.8,16.6-52.6-4.2-71s-52.6-16.6-71,4.2
		l-79.4,89.4l19-70.6c6.9-25.4-8.3-51.6-33.7-58.5c-25.3-6.8-51.6,8.3-58.5,33.7l-19.4,72.4c-17.5-14.3-36.8-26-58.2-34.2l52.6-52.6
		c18.7-18.7,18.7-48.8,0-67.5s-48.8-18.7-67.5,0l-51.8,51.8l37.8-113.5c3.3-10,3.6-21,0-31.8c-8.8-26.3-37.3-40.6-63.6-31.8
		c-26.3,8.8-40.6,37.2-31.8,63.6l37.8,113.5l-51.8-51.8c-18.7-18.7-48.8-18.7-67.5,0s-18.7,48.8,0,67.5l52.6,52.7
		c-21.3,8.3-40.7,20-58.2,34.2L357.9,274c-6.8-25.5-33.3-40.7-58.4-33.8c-25.4,6.8-40.5,32.9-33.7,58.4l18.9,70.9l-79.3-89.6
		c-7-7.8-16.5-13.6-27.6-15.9c-27.2-5.6-53.8,11.9-59.4,39.1s12,53.8,39.2,59.4l117.1,24l-70.6,18.9c-25.4,6.8-40.6,33-33.7,58.5
		c5.7,21.3,25,35.4,46.1,35.4c4.1,0,8.3-0.5,12.4-1.6l72-19.3c-1.9,11-3.5,22.2-3.5,33.7c0,11.5,1.6,22.7,3.4,33.7l-72-19.3
		c-25.4-6.8-51.6,8.3-58.5,33.7s8.3,51.6,33.7,58.5l70.8,18.9l-117.2,24c-10.3,2.1-20,7.4-27.5,15.9c-18.5,20.8-16.6,52.6,4.2,71
		c20.8,18.5,52.6,16.6,71-4.2l79.5-89.6l-19,70.8c-6.9,25.4,8.3,51.6,33.7,58.5c4.2,1.1,8.3,1.6,12.4,1.6c21,0,40.3-14,46.1-35.4
		l19.4-72.3c17.5,14.2,36.8,26,58.2,34.2l-52.7,52.6c-18.7,18.6-18.7,48.8,0,67.5s48.8,18.7,67.5,0l33.7-33.7h12l-31.8,95.4
		c-3.3,10-3.6,21,0,31.8c8.8,26.3,37.3,40.6,63.6,31.8c26.4-8.8,40.6-37.2,31.8-63.6l-31.8-95.4h12l33.7,33.7
		c9.4,9.3,21.5,14,33.7,14s24.4-4.7,33.7-14c18.7-18.6,18.7-48.8,0-67.5L588.3,712c21.4-8.2,40.8-19.9,58.2-34.2l19.4,72.4
		c5.7,21.3,25,35.4,46.1,35.4c4.1,0,8.3-0.5,12.4-1.6c25.4-6.8,40.6-33,33.7-58.5L739.2,655l79.3,89.4c7,7.9,16.5,13.6,27.5,15.9
		c27.2,5.6,53.8-12,59.4-39.2C911.3,693.7,893.7,667.1,866.5,661.6L866.5,661.6z M512,631.2c-65.8,0-119.3-53.5-119.3-119.3
		S446.2,392.7,512,392.7S631.3,446.2,631.3,512S577.8,631.2,512,631.2z"/>
</svg>
