<svg xmlns="http://www.w3.org/2000/svg" viewBox="0 0 1024 1024" >
	<path fill="#ECF0F1" d="M63.5,512C63.5,759.3,264,959.7,511,960V64C264,64.3,63.5,264.7,63.5,512z"/>
	<path fill="#ECF0F1" d="M511,960c1,0,0.6,0,0.8,0c123.6,0,235.4-50,316.4-131L511,512V960z"/>
	<path fill="#BDC3C7" d="M960,512c0-247.4-200.8-448-448.2-448c-0.2,0,0.2,0-0.8,0v448l317.3,317C909.5,747.9,960,635.8,960,512z"/>
	<path fill="#2C3E50" d="M266,690.8c-1.5,3.9-3.5,7.3-5.9,10.2c-2.4,2.9-5.1,5.3-8.2,7.3c-3.1,2-6.3,3.5-9.7,4.5
		c-3.4,1-6.7,1.5-10,1.5h-26.6l149.5-382.5c2.9-7.2,7.1-12.7,12.5-16.5c5.5-3.8,12-5.8,19.7-5.8h26.9L266,690.8z"/>
	<path fill="#2C3E50" d="M516.6,694.1c-22.7,0-40.2-6.4-52.5-19.3c-12.3-12.9-18.4-30.7-18.4-53.4V474.8h-26.6c-3.4,0-6.4-1.1-8.8-3.3
		c-2.5-2.2-3.7-5.5-3.7-10v-25.1l42.2-6.9l13.3-71.7c0.7-3.4,2.3-6.1,4.7-7.9c2.5-1.9,5.6-2.8,9.3-2.8h32.8v82.7H578v45.1h-69.1
		v142.3c0,8.2,2,14.6,6.1,19.2c4.1,4.6,9.6,6.9,16.4,6.9c3.9,0,7.2-0.5,9.9-1.4c2.6-0.9,4.9-1.9,6.9-2.9c2-1,3.7-2,5.2-2.9
		c1.5-0.9,3.1-1.4,4.6-1.4c1.9,0,3.4,0.5,4.6,1.4c1.2,0.9,2.5,2.3,3.8,4.2l18.9,30.7c-9.2,7.7-19.8,13.5-31.7,17.4
		C541.8,692.2,529.4,694.1,516.6,694.1z"/>
	<path fill="#2C3E50" d="M818.4,453.5c0,4.4-0.8,8.7-2.4,12.9c-1.6,4.2-3.5,7.7-5.8,10.6L685.3,641.4h129.5V690h-203v-26.4
		c0-2.9,0.7-6.4,2-10.4c1.4-4,3.5-7.8,6.4-11.4l126-166.1h-127v-48.4h199.2V453.5z"/>
</svg>
