<svg xmlns="http://www.w3.org/2000/svg" viewBox="0 0 1024 1024" >
  <path fill="#ECF0F1" d="M512,42L87,191c0,0,5.3,255.1,113.3,467.1C304.8,863.4,512,986,512,986s207.2-122.6,311.7-327.9
	C931.7,446.1,937,191,937,191L512,42z"/>
	<path fill="#27AE60" d="M512,142L187,256.4c9.3,84.4,33.6,228.1,96.5,352.1C345.2,730.1,451.1,820.8,511.9,866
		c60.8-45.4,167.2-136.5,228.6-257.5c62.9-124,87.2-267.8,96.5-352.1L512,142z"/>
  <polygon fill="#FFFFFF" points="725,363.7 661.5,300 479.6,481.7 383.7,385.7 319,450.3 478.3,610 479.4,608.9 479.4,608.9 		"/>
  <path fill="#2C3E50" fill-opacity="0.1" d="M512,42L512,42L87,191c0,0,5.3,255.1,113.3,467.1C304.8,863.4,512,986,512,986l0,0V42z"/>
</svg>